<svg width="80" height="48" xmlns="http://www.w3.org/2000/svg"><g fill="none" fill-rule="evenodd"><path d="M0 0h80v48H0z"/><path d="M58.587 19.114l3.162 10.176h.048l3.162-10.176h2.71l-4.684 13.16c-1.07 3.032-2.306 4.007-4.897 4.007-.215 0-.857-.024-1.046-.06v-2.08c.19.047.617.047.831.047 1.19 0 1.831-.499 2.223-1.783 0-.024.227-.76.227-.773l-4.518-12.518h2.782zm-8.838-.226c3.031 0 4.97 1.605 4.97 4.113v8.62h-2.462v-2.057h-.06c-.724 1.39-2.306 2.27-3.946 2.27-2.45 0-4.161-1.521-4.161-3.768 0-2.188 1.676-3.531 4.648-3.698l3.424-.202v-.963c0-1.39-.94-2.223-2.508-2.223-1.487 0-2.414.713-2.64 1.831H44.59c.143-2.259 2.069-3.923 5.16-3.923zm-25.621-1.24l.284.004c.594.046 2.309.23 3.406 1.852-.092.07-2.034 1.19-2.011 3.545.022 2.813 2.468 3.75 2.49 3.774-.022.069-.387 1.327-1.279 2.63-.777 1.143-1.577 2.264-2.857 2.287-1.235.023-1.646-.732-3.063-.732-1.417 0-1.874.709-3.04.755-1.234.045-2.17-1.213-2.948-2.356-1.6-2.31-2.811-6.518-1.166-9.354.8-1.418 2.263-2.31 3.84-2.332 1.211-.023 2.331.8 3.063.8.731 0 2.034-.96 3.565-.869zm13.62-3.183c3.328 0 5.646 2.295 5.646 5.635 0 3.353-2.366 5.66-5.73 5.66h-3.686v5.86h-2.662V14.465h6.431zM52.161 25.95l-3.08.19c-1.533.107-2.4.784-2.4 1.854 0 1.094.903 1.807 2.282 1.807 1.795 0 3.198-1.236 3.198-2.865v-.986zm-15.116-9.238h-3.068v6.812h3.056c2.318 0 3.638-1.248 3.638-3.412 0-2.163-1.32-3.4-3.626-3.4zm-12.622-3.555c.115 1.102-.32 2.18-.962 2.982-.665.78-1.719 1.399-2.773 1.307-.138-1.055.39-2.178.985-2.866.664-.803 1.81-1.376 2.75-1.423z" fill="#FFF" fill-rule="nonzero"/></g></svg>