<svg xmlns="http://www.w3.org/2000/svg" width="80" height="48" viewBox="0 0 80 48">
  <path d="M58.5866309,19.1135683 L61.7493419,29.2903426 L61.7965811,29.2903426 L64.9592966,19.1135683 L67.6698023,19.1135683 L62.9853509,32.2741902 C61.9158294,35.3059653 60.6793585,36.2807819 58.0876438,36.2807819 C57.8734687,36.2807819 57.2313872,36.2569313 57.0415109,36.2213887 L57.0415109,34.1408151 C57.2313826,34.1882853 57.6592845,34.1882853 57.8734642,34.1882853 C59.062234,34.1882853 59.7043155,33.6890626 60.0964438,32.4051306 C60.0964438,32.38128 60.3225464,31.6442626 60.3225464,31.6323396 L55.80504,19.1135683 L58.5866309,19.1135683 Z M49.7488347,18.8876921 C52.7803789,18.8876921 54.7180891,20.4926672 54.7180891,23.0011472 L54.7180891,31.6204121 L52.2570838,31.6204121 L52.2570838,29.5636845 L52.1979215,29.5636845 C51.4728272,30.9547109 49.8914717,31.8343608 48.2509494,31.8343608 C45.8018626,31.8343608 44.0897977,30.3126249 44.0897977,28.0657992 C44.0897977,25.8781313 45.7660936,24.534806 48.7384755,24.368323 L52.1621479,24.1662974 L52.1621479,23.2034038 C52.1621479,21.8123774 51.222874,20.9801932 49.6538989,20.9801932 C48.1674792,20.9801932 47.2401283,21.6933645 47.014483,22.8110445 L44.5892423,22.8110445 C44.7318792,20.5520604 46.6576664,18.8876921 49.7488347,18.8876921 Z M24.1277135,17.6471898 L24.4121026,17.6524619 C25.0064151,17.6984332 26.7206943,17.8814038 27.8178475,19.5040981 C27.7264075,19.5735713 25.7835442,20.6938234 25.8066294,23.0489977 C25.8293026,25.8617706 28.2745313,26.7998219 28.2974898,26.8226943 C28.2745358,26.8917509 27.9095774,28.1497042 27.0180543,29.4524966 C26.2409253,30.5964634 25.4407019,31.7170008 24.1607094,31.7398868 C22.9264166,31.7627592 22.5147306,31.0077464 21.0984362,31.0077464 C19.6811004,31.0077464 19.2240725,31.7170053 18.0580619,31.7627592 C16.8239683,31.8079608 15.8873842,30.5495955 15.110246,29.4067426 C13.5099532,27.0966974 12.2986008,22.8894023 13.9442355,20.0530551 C14.7443185,18.6352302 16.2072679,17.7437796 17.7839185,17.7206219 C18.9952709,17.6984332 20.1152513,18.521674 20.847034,18.521674 C21.5784136,18.521674 22.8805811,17.5612347 24.4121026,17.6524619 Z M37.7474038,14.465117 C41.0761404,14.465117 43.3940604,16.7596483 43.3940604,20.1003079 C43.3940604,23.4528951 41.0284438,25.7593449 37.6639336,25.7593449 L33.9783849,25.7593449 L33.9783849,31.6204075 L31.3155758,31.6204075 L31.3155758,14.465117 L37.7474038,14.465117 Z M52.1621479,25.949683 L49.0829026,26.1397857 C47.5492438,26.2468755 46.681517,26.9244996 46.681517,27.994483 C46.681517,29.088086 47.5850174,29.8014838 48.9641208,29.8014838 C50.7591985,29.8014838 52.1621479,28.5650174 52.1621479,26.9364226 L52.1621479,25.949683 Z M37.0456936,16.7121781 L33.9783804,16.7121781 L33.9783804,23.5242113 L37.0337706,23.5242113 C39.3521479,23.5242113 40.6716272,22.2760483 40.6716272,20.1122309 C40.6716272,17.9486445 39.3521479,16.7121781 37.0456936,16.7121781 Z M24.4240845,13.157194 C24.5389449,14.2585857 24.1034445,15.336394 23.4616755,16.1391079 C22.7967623,16.9192981 21.7431442,17.5379049 20.6885525,17.4464287 C20.5510415,16.3912075 21.0785117,15.2682702 21.6744679,14.5803306 C22.3381947,13.7769872 23.4846249,13.2039079 24.4240845,13.157194 Z"/>
</svg>
