<svg xmlns="http://www.w3.org/2000/svg" xmlns:xlink="http://www.w3.org/1999/xlink" width="100" height="48"><defs><path id="prefix__a" d="M48.92 6.808l3.383 8.29h.04l3.303-8.29h2.321l-7.136 16.618h-2.202l2.653-5.813-4.683-10.805h2.322zm-7.786-.376c1.579 0 2.826.43 3.741 1.278.915.848 1.366 2.032 1.366 3.525v7.118h-2.043v-1.6h-.092c-.89 1.318-2.056 1.977-3.529 1.977-1.247 0-2.308-.377-3.144-1.13a3.59 3.59 0 01-1.26-2.826c0-1.197.451-2.14 1.34-2.852.889-.714 2.083-1.063 3.568-1.063 1.274 0 2.308.242 3.13.7v-.499c0-.74-.318-1.44-.875-1.924a3.08 3.08 0 00-2.056-.794c-1.194 0-2.135.512-2.825 1.534L36.57 8.68c1.008-1.494 2.534-2.247 4.563-2.247zM31.014 1.48a5.036 5.036 0 013.66 1.467 4.92 4.92 0 01.24 6.889l-.24.242c-.995.956-2.215 1.44-3.66 1.44h-3.53v6.835H25.35V1.48h5.664zm10.399 11.128c-.862 0-1.592.215-2.176.632-.57.417-.862.942-.862 1.575 0 .565.266 1.09.703 1.412a2.584 2.584 0 001.658.565 3.37 3.37 0 002.401-1.009c.703-.672 1.061-1.466 1.061-2.381-.663-.539-1.591-.808-2.785-.794zM31.066 3.552h-3.581v5.894h3.581a2.773 2.773 0 002.11-.875c1.114-1.17 1.087-3.054-.067-4.184a2.89 2.89 0 00-2.043-.835z"/></defs><g fill="none" transform="translate(22.605 13.585)"><use fill="#3C4043" xlink:href="#prefix__a"/><use fill="#000" xlink:href="#prefix__a"/><path fill="#4285F4" d="M18.85 10.038c0-.66-.054-1.319-.16-1.965H9.683V11.8h5.16a4.49 4.49 0 01-1.91 2.947v2.422h3.078c1.804-1.682 2.838-4.171 2.838-7.131z"/><path fill="#34A853" d="M9.683 19.51c2.574 0 4.75-.86 6.328-2.34l-3.078-2.423c-.862.592-1.963.929-3.25.929-2.493 0-4.603-1.71-5.359-3.997h-3.17v2.503c1.618 3.27 4.921 5.329 8.53 5.329z"/><path fill="#FBBC04" d="M4.324 11.68a5.925 5.925 0 010-3.714v-2.49h-3.17a9.73 9.73 0 000 8.693l3.17-2.49z"/><path fill="#EA4335" d="M9.683 3.97a5.1 5.1 0 013.661 1.453l2.733-2.772A9.147 9.147 0 009.683.135c-3.608 0-6.91 2.072-8.529 5.341l3.17 2.503c.756-2.3 2.866-4.01 5.36-4.01z"/></g></svg>