<svg width="96" height="48" xmlns="http://www.w3.org/2000/svg"><g fill="none" fill-rule="evenodd"><path d="M0 0h96v48H0z"/><g fill="#000"><path d="M53.93 28.547l2.276 5.5 2.149-5.5h1.982l-4.871 11.934h-1.912l1.716-4.174-3.35-7.76h2.01zm-7.132-.167c1.075 0 2.038.446 2.624 1.144v-.977h1.884v8.165h-1.884v-1.06c-.6.753-1.577 1.228-2.652 1.228-1.968 0-4.02-1.578-4.02-4.243 0-2.708 1.982-4.257 4.048-4.257zm-8.082-1.857c2.108 0 3.671 1.62 3.671 3.63 0 2.023-1.563 3.642-3.685 3.642h-1.577v2.917h-1.898V26.523h3.49zm8.361 3.573c-1.396 0-2.47 1.103-2.47 2.513 0 1.423 1.074 2.54 2.47 2.54 1.396 0 2.443-1.13 2.443-2.54 0-1.382-1.047-2.513-2.443-2.513zm-8.5-1.814h-1.452v3.754h1.452c1.13 0 1.898-.837 1.898-1.884 0-1.033-.768-1.87-1.898-1.87zM17.887 10.512c1.349 0 3.213.325 3.213 2.4v.671h-2.378v-.59c0-.519-.327-.863-.885-.863-.596 0-.803.334-.87.64-.025.106-.036.307.01.5.27 1.116 3.885 1.712 4.287 3.707.041.2.127.74.01 1.562-.226 1.59-1.644 2.179-3.368 2.179-1.79 0-3.463-.642-3.463-2.768v-.735H17l.002.924c0 .519.362.864.957.864.636 0 .851-.324.929-.641.045-.18.074-.475-.019-.705-.49-1.233-3.877-1.796-4.29-3.744-.1-.48-.091-.86-.022-1.285.252-1.554 1.638-2.116 3.331-2.116zm30.991.053c1.335 0 3.182.321 3.182 2.376v.664h-2.355v-.584c0-.515-.323-.854-.877-.854-.589 0-.794.33-.862.633a1.21 1.21 0 00.012.495c.266 1.105 3.845 1.694 4.244 3.67.041.2.125.732.01 1.546-.224 1.575-1.627 2.157-3.334 2.157-1.773 0-3.43-.635-3.43-2.74v-.727H48l.002.914c0 .515.358.855.948.855.63 0 .842-.32.92-.633.044-.178.072-.47-.019-.698-.486-1.222-3.84-1.779-4.247-3.708a3.23 3.23 0 01-.022-1.272c.25-1.54 1.621-2.094 3.297-2.094zm8.035.25v7.05c-.002.121.002.26.023.363.046.234.25.69.914.69.663 0 .867-.456.914-.69.02-.103.023-.242.022-.364v-7.05h2.412v6.833c.003.175-.015.534-.024.627-.166 1.778-1.572 2.355-3.324 2.355-1.752 0-3.158-.577-3.325-2.355a8.11 8.11 0 01-.022-.627v-6.833h2.41zm20.823-.258c1.69 0 3.17.567 3.345 2.354.017.169.022.344.022.466v.48H78.7v-.535s-.002-.226-.03-.363c-.043-.21-.224-.692-.953-.692-.693 0-.897.457-.95.692a2.292 2.292 0 00-.038.45v4.357c0 .121.004.254.022.362.045.255.286.691.975.691.69 0 .93-.436.974-.691.013-.072.02-.155.022-.238v-1.508h-.976v-1.389h3.375v2.555c-.002.18-.005.31-.034.627-.158 1.736-1.663 2.355-3.352 2.355-1.69 0-3.192-.62-3.352-2.355a6.635 6.635 0 01-.033-.627l.001-4.01c0-.169.02-.467.04-.627.213-1.781 1.655-2.354 3.345-2.354zm-48.851.259l1.756 9.529h-2.56l-1.27-8.647h-.053l-1.304 8.647H22.88l1.766-9.53h4.24zm7.756 0l1.174 7.286h.054l1.175-7.286h3.885l.21 9.529h-2.383l-.06-8.566h-.052l-1.593 8.566h-2.418l-1.592-8.566h-.052l-.06 8.566h-2.385l.21-9.53h3.887zm30.75 0l2.19 7.48h.052l-.129-7.48h2.36v9.43h-3.393l-2.353-7.737h-.052l.132 7.738h-2.344v-9.431h3.537z"/></g></g></svg>