<?xml version="1.0" encoding="UTF-8"?> <svg xmlns="http://www.w3.org/2000/svg" id="Capa_1" height="512" viewBox="0 0 512 512" width="512"> <g> <path d="m113 239h399v34h-399z"></path> <path d="m98.06 145c13.71-18.2 35.49-30 59.94-30h239.635c-4.921-19.512-22.615-34-43.635-34h-309c-24.813 0-45 20.187-45 45v19z"></path> <path d="m84.51 175h-84.51v34h83c0-20.455-.369-24.854 1.51-34z"></path> <path d="m83 239h-83v83c0 24.813 20.187 45 45 45h38z"></path> <path d="m158 145c-24.664 0-44.904 19.993-45 44.85v19.15h399v-19c0-24.813-20.187-45-45-45-31.262 0-279.569 0-309 0z"></path> <path d="m113 303v83c0 24.813 20.187 45 45 45h309c24.813 0 45-20.187 45-45v-83zm167 64h-88c-8.284 0-15-6.716-15-15s6.716-15 15-15h88c8.284 0 15 6.716 15 15s-6.716 15-15 15zm152 0h-16c-8.284 0-15-6.716-15-15s6.716-15 15-15h16c8.284 0 15 6.716 15 15s-6.716 15-15 15z"></path> </g> </svg> 