<?xml version="1.0" encoding="UTF-8"?> <svg xmlns="http://www.w3.org/2000/svg" width="59" height="36" viewBox="0 0 59 36" fill="none"> <path d="M53.1147 36H0L4.86989 20.3029H57.9846L53.1147 36Z" fill="#00AEC7"></path> <path d="M22.7656 14.4183V4.60565H27.1501V7.85599H29.1701V4.60565H33.5545V14.4183H29.1701V11.1679H27.1501V14.4183H22.7656Z" fill="#1F3742"></path> <path d="M44.4713 8.9651L46.1312 4.60565H41.8563L40.5253 7.85599H39.7424V4.60565H35.3579V14.4183H39.7424V11.1679H40.7915L42.1225 14.4183H46.507L44.4713 8.9651Z" fill="#1F3742"></path> <path d="M54.0089 5.69964C52.6779 5.69964 51.7696 6.20798 51.1433 6.85497C51.159 6.02313 51.7853 5.14508 52.6309 4.79078C54.1028 4.1746 55.8096 4.60592 56.9997 3.57383V0C56.9997 0 55.9662 0.415919 54.0715 0.631581C52.9284 0.770221 51.3155 1.12452 49.8906 2.00258C48.1211 3.11169 46.8528 4.92942 46.8528 8.59567C46.8528 13.3864 49.6714 14.742 52.5839 14.742C55.4495 14.742 58.0019 13.3094 58.0019 10.1669C57.9862 7.14765 56.1698 5.69964 54.0089 5.69964ZM52.4273 11.4301C51.3625 11.4301 51.1276 10.6136 51.1276 9.98207C51.1276 9.35049 51.3782 8.54946 52.4273 8.54946C53.4608 8.54946 53.7113 9.35049 53.7113 9.98207C53.727 10.6291 53.4765 11.4301 52.4273 11.4301Z" fill="#1F3742"></path> <path d="M21.5323 9.51991C21.5323 7.10142 20.4205 4.82156 17.9151 4.37484C17.8525 4.35943 17.8055 4.35943 17.7429 4.34403C17.6019 4.32862 17.4453 4.31322 17.2888 4.29781C17.1791 4.29781 17.0852 4.28241 16.9756 4.28241C16.8816 4.28241 16.7877 4.28241 16.6937 4.29781C16.6937 4.29781 16.6937 4.29781 16.6781 4.29781C15.8795 4.34403 15.1748 4.5905 14.6424 4.9602C14.2666 5.20668 13.9534 5.49936 13.7029 5.80745L13.3271 4.62131H9.85083V18.3621H14.2353V13.8332C14.5485 14.1104 14.9243 14.3415 15.394 14.4955C15.8325 14.665 16.3336 14.742 16.9599 14.742C20.1387 14.7574 21.5323 12.2157 21.5323 9.51991ZM15.5037 11.2914C14.9086 11.2914 14.4075 10.9371 14.2196 10.5982V8.4416C14.4232 8.0873 14.9086 7.7484 15.5037 7.7484C16.5685 7.7484 17.0226 8.64186 17.0226 9.51991C17.0226 9.62774 17.0226 9.73558 17.0069 9.84341C16.8973 10.6136 16.4275 11.2914 15.5037 11.2914Z" fill="#1F3742"></path> </svg> 