<svg xmlns="http://www.w3.org/2000/svg" xmlns:xlink="http://www.w3.org/1999/xlink" viewBox="0,0,256,256" width="50px" height="50px" fill-rule="nonzero"><g fill="#21ba72" fill-rule="nonzero" stroke="none" stroke-width="1" stroke-linecap="butt" stroke-linejoin="miter" stroke-miterlimit="10" stroke-dasharray="" stroke-dashoffset="0" font-family="none" font-weight="none" font-size="none" text-anchor="none" style="mix-blend-mode: normal"><g transform="scale(5.12,5.12)"><path d="M33.53906,2.65039l-17.53906,10.0293l-7.74023,-4.42969c-0.48,0.49 -0.92008,1.00906 -1.33008,1.53906l9.07031,5.20117l19.75977,-11.31055c-0.72,-0.39 -1.4607,-0.7293 -2.2207,-1.0293zM38.83008,5.61914l-22.83008,13.06055l-10.88086,-6.23047c-0.34,0.57 -0.64969,1.16172 -0.92969,1.76172l11.81055,6.7793l24.4707,-14c-0.52,-0.48 -1.07062,-0.93109 -1.64062,-1.37109zM42.75,9.38086l-26.75,15.29883l-12.98047,-7.43945c-0.21,0.65 -0.37953,1.32 -0.51953,2l13.5,7.75l27.96094,-16c-0.38,-0.55 -0.78094,-1.08937 -1.21094,-1.60937zM45.7168,14l-29.7168,17l-13.95312,-8c-0.016,0.333 -0.04687,0.663 -0.04687,1c0,12.703 10.297,23 23,23c12.703,0 23,-10.297 23,-23c0,-3.584 -0.8202,-6.976 -2.2832,-10z"></path></g></g></svg>